# xmcd
#
# Track frame offsets: 
#        150
#        16800
#        36300
#        51900
#        70800
#        83100
#        96825
#        113550
#        127425
#        143850
#        156000
#        180375
#        192825
#        209925
#        218026
#        234647
#        249782
#        274932
#
# Disc length: 3982 seconds
#
# Revision: 0
# Processed by: cddbd v1.5.2PL0 Copyright (c) Steve Scherf et al.
# Submitted via: ExactAudioCopy v0.99pb3
#
DISCID=070f8c12
DTITLE=Shakin' Dudi - Platynowa Plyta
DYEAR=2006
DGENRE=Blues Rock, Boogie, Neo Swing, Rock'n'Roll
TTITLE0=Gdy Wracam Pozno
TTITLE1=Tak Dobrze Mi Tu
TTITLE2=Mniam
TTITLE3=Zostalas Baba
TTITLE4=Taka Przebojowa
TTITLE5=Plac, Plac, Plac
TTITLE6=Gdybys Miala
TTITLE7=To My Ulani
TTITLE8=Poopelina
TTITLE9=Ojciec Basi
TTITLE10=Kopciuszku Wroc
TTITLE11=Skok W Bok
TTITLE12=Lady Glupota
TTITLE13=Nalej Mi
TTITLE14=Lili, Na Imie Mialas Lili
TTITLE15=Teledurniej
TTITLE16=Tak Dobrze Mi Tu
TTITLE17=Gdy Wracam
EXTD=
EXTT0=
EXTT1=
EXTT2=
EXTT3=
EXTT4=
EXTT5=
EXTT6=
EXTT7=
EXTT8=
EXTT9=
EXTT10=
EXTT11=
EXTT12=
EXTT13=
EXTT14=
EXTT15=
EXTT16=
EXTT17=
PLAYORDER=
